<?xml version="1.0" encoding="utf-8"?>
<!-- Generator: Adobe Illustrator 23.1.0, SVG Export Plug-In . SVG Version: 6.00 Build 0)  -->
<svg version="1.1" xmlns="http://www.w3.org/2000/svg" xmlns:xlink="http://www.w3.org/1999/xlink" x="0px" y="0px"
	 viewBox="0 0 1920 1080" style="enable-background:new 0 0 1920 1080;" xml:space="preserve">
<style type="text/css">
	.st0{display:none;}
	.st1{display:inline;}
	.st2{fill:#1FC8C8;}
	.st3{fill:#A44DA5;}
</style>
<g id="Capa_1" class="st0">
	<g class="st1">
		<path class="st2" d="M786.62,379.95c-1.52,9.34-3.33,18.65-2.7,28.2c0.14,2.06,0.48,3.9,1.79,5.57c6.18,7.9,7.28,17.1,5.76,26.53
			c-1.46,8.98-0.08,17.16,4.34,24.99c1.78,3.16,1.83,8.65,4.71,9.37c3.22,0.81,6.38-3.48,9.63-5.46c6.7-4.09,11.4-10.49,17.58-15.21
			c10.76-8.23,22.58-14.8,33.91-22.14c9.73-6.31,20.21-11.15,30.15-16.95c17.94-10.47,36.41-19.65,56.03-26.24
			c9.44-3.17,18.66-6.95,28.13-10.05c7.41-2.43,14.83-5.51,21.55-9.89c2.59-1.69,5.68-2.8,8.69-3.64
			c11.05-3.07,21.34-8.49,32.17-11.68c18.72-5.51,37.04-12.39,56.53-15.63c19.16-3.18,38-8.53,57.02-12.62
			c12.28-2.64,23.59-7.97,35.84-10.45c3.55-0.72,7.48,0.67,10.3-2.01c3,8.87,5.86,17.53,8.88,26.15c0.95,2.73,0.74,3.98-2.45,5.16
			c-17.25,6.38-30.2,18.23-40.59,33.11c-0.34,0.49-0.39,1.18-0.7,2.18c5.09,0,9.94,0.51,14.65-0.09
			c18.64-2.39,32.13,6.18,43.96,19.34c8.97,9.98,15.92,21.29,20.74,33.54c5.65,14.38,13.51,27.58,19.95,41.51
			c1.44,3.11,3.5,5.69,7.09,7.12c4.96,1.99,8.92,5.72,13.03,9.09c1.67,1.37,2.15,3.15,2.57,5.17c3.02,14.63,1.39,19.57-11.58,26.64
			c-6.85,3.74-10.47,9.65-14.58,15.53c-6.31,9.03-11.27,18.95-18.14,27.61c-2.7,3.4-3.4,3.47-6.28,0.57
			c-0.95-0.95-1.41-0.17-2.07,0.13c-1.2,0.54-2.42,1.06-3.58,1.66c-7.64,3.96-12.55-0.82-17.56-5.42c-3.6-3.3-7-6.29-12.46-7.24
			c-5.79-1-10.49-5.55-14.93-9.42c-6.04-5.26-13.53-5.13-20.1-4.6c-15.64,1.24-29.74,8.11-43.56,15.25
			c-6.02,3.11-11.77,6.9-17.85,9.66c-12.05,5.45-19.2,15.62-26.75,25.38c-4.89,6.32-10.02,12.52-13.5,19.99
			c-3.27,7.04-6.1,14.21-9,21.38c-1.18,2.92,0.68,5.52,0.66,8.32c-0.06,9.33-0.17,18.66,0,27.99c0.1,5.34-3.8,8.9-5.44,13.46
			c-1.53,4.26-2.6,8.48-2.58,13c0.05,13.49,0.24,26.99,0.07,40.48c-0.14,11.04,3.33,21.02,7.9,30.82c2.01,4.31,3.45,8.88,5.07,13.36
			c5.69,15.68,11.11,31.46,19.08,46.19c1.68,3.1,3.8,5.56,6.63,7.83c6.25,5,11.67,10.9,14.17,18.83c0.83,2.64,2.2,4.62,4.68,6.09
			c5.85,3.47,10.04,8.85,13.18,14.57c5.98,10.89,15.45,18.71,23.23,28c3.88,4.64,4.34,5.37,0.69,10.05c-4,5.13-9.2,9-13.75,13.55
			c-1.23,1.23-2.31,1.4-3.92,0.38c-6.03-3.83-11.4-8.34-15.59-14.19c-7.01-9.79-15.71-18.03-24.64-25.94
			c-6.12-5.42-10.46-11.69-14.24-18.91c-3.31-6.34-8.41-11.84-13.21-17.28c-5.22-5.91-10.33-11.7-13.49-19.15
			c-2.04-4.8-2.77-9.47-2.82-14.57c-0.04-4.96-2.06-9.57-3.83-14.18c-6.19-16.13-14.09-31.79-17.14-48.85
			c-2.93-16.38-5.6-33.12-3.63-49.79c1.78-15.06,1.43-30.09,2-45.14c0.28-7.48,0.41-15.05,3.44-22.33
			c5.22-12.56,10.27-25.24,14.43-38.18c2.7-8.39,6.07-16.19,10.92-23.53c6.6-10,14.88-18.03,25.28-23.98
			c9.68-5.53,17.08-14.32,26.72-19.71c19.41-10.84,38.63-23.09,62.67-18.38c4.29,0.84,8.21-1.22,12.57-1.2
			c12.75,0.06,22.28,6.67,31.9,13.35c4.11,2.86,8.16,5.41,12.91,7.26c6.82,2.66,6.63,3.12,11.02-3.43
			c5.39-8.05,9.84-16.77,17.02-23.52c1.16-1.09,0.69-1.93-0.15-2.97c-5.5-6.82-10.41-13.99-13.8-22.14
			c-0.53-1.27-2.06-2.14-3.16-3.15c-4.55-4.18-7.54-9.28-8.73-15.31c-3.73-19.02-13.32-34.68-27.05-48.07
			c-1.92-1.87-3.76-2.87-6.51-2.75c-5.16,0.22-10.33,0.21-15.49,0.05c-10.8-0.34-20.53,2.44-28.57,9.82
			c-1.96,1.8-3.9,2.25-6.27,2.15c-0.83-0.03-1.76-0.23-2.49,0.04c-9.26,3.51-12.91-2.46-16.06-9.38c-0.68-1.5-1.19-3.24-2.3-4.34
			c-3.86-3.78-3.25-7.98-1.13-12.05c5.18-9.95,9.18-20.65,17.63-28.61c0.81-0.76,2.09-1.6,1.7-2.83c-0.54-1.7-2.32-1.13-3.46-0.99
			c-7.89,0.97-15.73,2.35-23.64,3.13c-18.33,1.82-35.21,9.34-53,13.36c-7.71,1.74-15.54,5.58-21.82,10.4
			c-8.05,6.18-17.1,8.82-26.38,11.08c-10.56,2.58-20.6,6.36-30.71,10.24c-10.05,3.85-20.56,6.48-30.18,11.53
			c-11.23,5.89-22.61,11.52-33.79,17.5c-4.11,2.2-8.67,3.16-12.74,5.33c-21.55,11.45-41.92,24.66-60.08,41.08
			c-4.68,4.23-7.12,10.24-11.68,14.6c-5.98,5.73-5.88,5.79-1.76,13.14c1.13,2.02,1.87,4.27,3.02,6.28
			c3.4,5.94,7.55,10.97,13.66,14.67c10.92,6.62,18.65,16.84,26.27,26.72c4.58,5.94,9.65,11.25,15.06,16.21
			c8.61,7.88,13.95,17.49,17.51,28.39c6.6,20.23,13.07,40.51,23.12,59.41c1.51,2.83,1.9,5.96,1.73,9.17
			c-1.03,19.78,2.64,39.36,2.37,59.17c-0.12,9.17-3.7,16.22-8.95,22.34c-4.16,4.85-7.67,9.89-10.01,15.59
			c-5.27,12.85-15.21,20.86-26.79,27.36c-12.58,7.05-25.77,12.48-40.06,14.97c-1.46,0.25-2.97,0.37-4.45,0.38
			c-9.33,0.05-18.69-0.37-27.99,0.2c-10.16,0.62-18.38-2.88-25.63-9.58c-4.98-4.61-10.43-8.08-17.15-10.21
			c-14.48-4.6-24.65-14.97-33.07-27.22c-7.04-10.26-11.75-21.36-15.71-33.3c-4.79-14.45-5.5-29.11-7.53-43.78
			c-1.22-8.77-3.25-17.39-4.02-26.28c-1.42-16.47,0.53-32.47,2.84-48.8c2.19-15.46,9.06-28.35,15.36-41.84
			c1.11-2.38,2.28-4.88,2.66-7.44c1.83-12.38,8.4-22.63,16.97-30.67c7.49-7.03,13.11-15.17,18.97-23.22
			c3.9-5.36,7.85-10.58,12.64-15.13c1.6-1.51,1.08-2.34,0.15-4.03c-6.56-12-10.31-25.17-15.53-37.72
			c-6.57-15.81-3.53-32.37-5.8-48.46c3.68-15.19,0.26-31.04,4.26-46.21c1.4-2.69,2.18-5.52,2.4-8.57
			c0.61-8.58,3.58-15.84,10.09-21.99c4.36-4.12,8.08-9.12,9.87-15.32c1.67-5.78,5.1-10.8,8.5-15.76
			c9.08-13.27,18.84-25.96,29.9-37.69c4.39-4.66,7.52-10.47,11.83-15.34c4.27-4.82,9.03-8.83,14.87-11.54
			c5.31-2.47,10.44,0.59,13.42,5.4c2.94,4.75,1.08,9.84,3.09,14.37c0.84,1.89,0.13,3.36-1.47,4.2c-6.53,3.44-10.3,9.57-15.01,14.83
			c-6.76,7.54-14.62,14.19-20.21,22.66c-7.35,11.14-16.68,21.22-20.01,34.7c-8.09,7.57-18.43,13.38-18.41,26.84
			c0.01,5.18-2.16,10.35-3.15,15.56C782.6,376.41,781.82,379.74,786.62,379.95z M740.04,659.73c0.01,0,0.01,0,0.02,0
			c0,14.16-0.02,28.32,0.02,42.48c0,1.63-0.28,3.28,0.44,4.91c3.27,7.31,4.48,15.5,9.87,21.93c3.65,4.37,4.24,10.35,6.9,15.12
			c3.13,5.6,7.94,10.16,12.58,14.86c10.16,10.28,23.54,14.22,35.94,19.24c12.89,5.22,27.13,4.55,41.03,0.1
			c13.32-4.27,23.42-12.59,32.76-22.33c6.62-6.91,10.36-15.16,10.52-24.77c0.19-11.66,0.2-23.33,0.01-34.98
			c-0.04-2.68,1.39-5.08,0.73-7.82c-2.33-9.66-4.49-19.36-6.8-29.02c-1-4.17-2.38-8.24-4.98-11.71c-2.42-3.23-3.58-6.94-5.06-10.6
			c-1.33-3.28-0.83-7.32-3.95-9.86c-11.66-9.49-16.91-23.22-22.45-36.29c-4.85-11.44-11.93-20.19-22.36-26.04
			c-9.44-5.29-15.62-13.06-20.75-22.16c-3.29-5.83-6.74-11.56-10.76-16.96c-1.68-2.26-2.43-2.23-3.75-0.03
			c-6.9,11.51-16.44,21.11-23.3,32.71c-7.94,13.42-16.87,26.26-20.76,41.69c-0.88,3.48-1.67,7.14-3.89,10.08
			c-1.61,2.14-2.03,4.39-2.02,6.96C740.07,631.4,740.04,645.57,740.04,659.73z"/>
		<path class="st3" d="M786.62,379.95c-4.8-0.21-4.01-3.53-3.45-6.48c0.99-5.21,3.16-10.38,3.15-15.56
			c-0.02-13.46,10.31-19.27,18.41-26.84c7.72-6.41,16.07-11.89,24.72-16.97c2.11-1.24,4.09-2.94,6.37-3.76
			c10.93-3.9,19.46-11.77,29.33-17.34c15.49-8.75,28.71-21.04,45.46-27.88c9.82-4.01,17.92-11.33,26.62-17.46
			c10.07-7.1,20.41-13.81,30.32-21.16c11.61-8.61,23.05-17.55,35.27-25.22c11.49-7.21,22.69-14.89,34.72-21.38
			c9.69-5.22,18.68-11.91,29.13-15.66c7.97-2.86,14.82-7.62,21.28-12.62c5.46-4.22,11.08-7.9,17.65-8.58
			c14.1-1.46,25.28-9.63,37.73-14.88c14.55-6.14,29.49-11.22,45.46-11.87c11.93-0.48,20.12,4.94,24.78,15.85
			c0.85,1.98,1.23,3.56,4.18,2.22c8.1-3.65,16.83-3.31,25.42-2.91c8.25,0.38,16.38,1.97,24.55,3.18c4.75,0.7,8.91,2.36,13.05,4.53
			c18.27,9.58,31.56,23.83,37.51,43.57c2.8,9.29,5.04,18.97,6.51,28.65c1.62,10.7,5.65,19.11,15.58,24.83
			c8.89,5.12,17.4,10.94,26.27,16.17c6.71,3.96,13.1,8.61,19.37,13.13c15.65,11.28,21.2,34.72,9.35,52.5
			c-3.97,5.96-8.71,10.82-13.98,15.67c-6.64,6.1-13.11,12.56-19.79,18.62c-9.13,8.28-19.97,14.25-31.51,18.85
			c-6.12,2.44-11.89,5.78-18.05,8.08c-8.89,3.32-17.91,6.35-27.22,8.34c-4.6,0.99-9.28,0.23-13.92,0.4
			c-1.18,0.04-1.73-0.53-1.89-1.76c-1.1-8.57-1.07-17.19-1.02-25.8c0.01-2.55,1.84-2.87,3.58-3.24c7.86-1.69,15.97-2.61,23.56-5.1
			c9.98-3.27,19.56-7.75,29.31-11.7c1.92-0.78,3.35-2.2,4.65-3.69c7.94-9.1,17.5-16.2,27.52-22.77c1.93-1.27,3.49-3.13,5.46-4.31
			c6.81-4.08,6.31-10.57,6.07-17.12c-0.07-1.9-1.08-2.57-2.49-3.23c-11.65-5.43-21.97-12.6-31.48-21.4
			c-6.28-5.81-14.79-9.11-21.65-14.39c-6.99-5.37-15.35-9.77-17.17-19.92c-1.68-9.36-3.93-18.6-4.13-28.19
			c-0.11-5.28-3.95-9.43-5.1-14.48c-1.34-5.91-3.88-11.24-7.74-16c-1.52-1.87-3.1-3.15-5.35-4.12c-7.72-3.32-14.83-8.28-23.57-8.76
			c-7.27-0.4-14.59-1.51-21.8,0.68c-5.76,1.76-6.32,2.62-3.67,7.87c2.48,4.91,2.77,10.22,1.62,15.08
			c-2.46,10.4-1.57,20.83-1.66,31.25c-0.06,7.41-0.45,14.59-4.18,21.26c-6.8,12.17-10.48,26.16-20.74,36.3
			c-10.15,10.03-21.21,18.96-36.46,18.46c-12.86-0.42-25.49,1.8-38.27,2.08c-10.65,0.24-20.04-3.57-29.26-8.39
			c-8.4-4.39-17.1-8.34-21.9-17.16c-3.46-6.36-6.82-12.81-9.73-19.43c-5.06-11.49-11.87-22.13-16.33-33.89
			c-1.27-3.35-3.76-1.4-4.72-0.64c-11.79,9.35-25.58,15.58-37.64,24.61c-7.9,5.92-16.42,11.3-24.81,16.69
			c-5.51,3.53-10.99,7.27-16.21,11.24c-3.84,2.92-7.7,5.81-11.95,7.89c-10.6,5.17-19.32,13.19-29.45,18.92
			c-8.85,5.01-16.54,11.64-25.52,16.51c-9.35,5.07-17.68,11.99-26.61,17.87c-16.26,10.7-31.82,22.51-49.29,31.32
			c-6.92,3.49-12.98,8.38-19.79,12.15C796.34,375.3,791.46,377.57,786.62,379.95z M1138.28,263.21c0-0.02,0-0.04,0-0.07
			c6.66,0,13.32,0.18,19.96-0.06c5.05-0.18,9.43-1.99,13.27-5.67c5.05-4.84,9.59-9.87,12.35-16.39c1.74-4.12,1.26-8.74,3.23-12.81
			c5.63-11.68,6.34-24.41,7.7-37c0.31-2.83,0.11-5.61-0.45-8.42c-1.67-8.28-4.9-16.01-4.58-24.97c0.52-14.6-2.89-14.06-14.39-8.97
			c-9.69,4.29-17.69,11.75-28.14,14.87c-7.12,2.13-13.8,5.87-20.28,9.33c-9.1,4.86-18.56,8.96-28.14,12.07
			c-8.02,2.6-15.29,6.01-22.46,10.13c-2.22,1.28-2.71,2.24-1.42,4.61c3.04,5.54,6.33,11.08,7.62,17.3
			c2.02,9.76,6.75,18.26,11.42,26.83c1.66,3.05,2.38,7.22,4.86,9.11c6.88,5.21,13.62,11.19,23.46,10.21
			C1127.58,262.78,1132.96,263.21,1138.28,263.21z"/>
		<path class="st3" d="M757.46,361.13c-4,15.17-0.57,31.02-4.26,46.21c-11.41,10.22-22.49,21.23-30.39,34.04
			c-8.7,14.11-21.93,23.7-31.39,36.98c-10.12,14.21-23.28,26.24-33.35,40.66c-5.97,8.55-12.47,16.82-18.05,25.51
			c-5.82,9.06-12.43,18.11-14.59,29.35c-1.75,9.11-8.44,16.39-11.02,25.25c-3.21,11.03-5.04,22.49-8.79,33.31
			c-3.02,8.72-4.41,17.34-3.49,26.31c1.01,9.81,1.94,19.74,5.14,29.11c1.19,3.5,5.12,5.85,6.44,9.69c0.8,2.33,2.47,4.53,2.19,7.03
			c-1.02,8.82,0.98,17.25,4.31,25.12c3.55,8.39,3.38,17.84,8.04,25.76c3.88,6.59,4.82,14.6,10.66,20.36
			c2.2,2.16,2.54,6.24,3.63,9.49c1.4,4.19,3.77,7.36,8.46,7.88c2.31,0.25,2.03,1.79,2.04,3.23c0.02,7.83-0.07,15.66,0.06,23.49
			c0.04,2.48-0.95,3-3.23,3.08c-6.89,0.25-13.3-2.27-20-3.16c-22.59-3-43.79-11.45-65.25-18.41c-18.09-5.86-35.8-13.78-50.97-25.73
			c-12.33-9.72-21.86-21.79-25.69-37.59c-0.88-3.65-0.68-7.28-0.75-10.92c-0.12-6.42,0.9-6.77,7.31-6.83
			c5.87-0.06,11.7-0.26,17.5,0.72c1.66,0.28,3.35,0.63,3.54,3.14c0.17,2.28,2.37,2,3.96,1.78c2.06-0.28,3.91,0.08,5.81,0.82
			c2.32,0.89,2.84,2.32,2.27,4.7c-2.14,9,1.87,17.19,9.44,23.21c10.51,8.35,22.44,12.05,35.42,14.12
			c6.55,1.05,13.54,2.75,17.87,8.87c1.09,1.55,2.7,1.75,3.93,1.28c1.42-0.54,0.92-2.34,0.65-3.57c-1.95-8.6-6.67-16.43-7.61-25.27
			c-1.6-15-6.17-29.4-8.47-44.22c-0.78-5.04-4.63-7.58-7.29-10.93c-4.81-6.08-5.88-12.96-5.03-19.95
			c1.77-14.66,4.2-29.26,6.68-43.82c1.68-9.87,4.58-19.49,7.47-29.07c1.48-4.92,3.05-9.83,2.54-15.03c-0.33-3.4,1.05-6.52,2.68-8.85
			c4.04-5.79,5.17-12.75,8.54-18.75c2.34-4.17,4.36-8.53,7.71-12.05c6.27-6.6,7.34-16.01,12.87-23.17
			c12.04-15.6,24.13-31.09,37.11-45.97c8.22-9.43,16.07-19.35,24.28-28.8c8.67-9.98,16.31-20.75,25.12-30.64
			c8.43-9.46,16.32-19.63,24.97-28.85C736.08,379.79,742.75,366,757.46,361.13z"/>
	</g>
</g>
<g id="Capa_2">
	<g>
		<g>
			<path class="st3" d="M488.45,740.52c5.79,9.87,13.7,18.91,21.73,27c18.6,18.76,41.13,32.99,65.82,42.26
				c18,6.76,37.25,10.06,56.42,10.9c13.68,0.6,22.38-15.73,15.54-27.08c-5.41-8.98-10.55-18.13-15.28-27.48
				c-2.14-4.23-4.2-8.5-6.18-12.81c-0.95-2.08-1.89-4.17-2.8-6.28c-0.18-0.42-1.55-3.67-0.75-1.73c0.81,1.96-0.84-2.09-0.99-2.46
				c-6.19-15.38-11.2-31.25-14.62-47.47c-0.74-3.52-1.41-7.06-1.99-10.6c-0.27-1.61-0.86-3.53-0.79-5.17c0-0.01,0.45,3.68,0.21,1.6
				c-0.12-1.05-0.26-2.1-0.38-3.15c-0.77-6.8-1.24-13.63-1.36-20.48c-0.11-5.92,0.04-11.85,0.45-17.76c0.2-2.78,0.45-5.56,0.77-8.32
				c0.22-1.89,1.54-5.31,0-0.23c0.41-1.36,0.44-2.98,0.67-4.39c1.6-9.67,3.98-19.21,7.15-28.49c0.64-1.87,1.31-3.72,2.01-5.56
				c0.36-0.95,0.73-1.89,1.11-2.83c0.18-0.46,0.38-0.92,0.56-1.38c1.14-2.9-1.95,4.41-0.68,1.62c1.49-3.27,2.96-6.54,4.61-9.73
				c6.17-11.94,14.05-23.04,21.59-34.14c6.15-9.06,12.43-18.03,18.82-26.92c3.64-5.06,7.31-10.08,11.03-15.08
				c1.96-2.64,3.94-5.27,5.93-7.89c1.02-1.34,2.04-2.68,3.06-4.02c0.52-0.68,1.04-1.35,1.55-2.03c2.04-2.67-1.44,1.84-0.06,0.08
				c18.42-23.54,37.55-46.51,58.39-67.95c10.44-10.74,21.27-21.11,32.68-30.82c2.66-2.26,5.35-4.49,8.07-6.68
				c0.76-0.61,5.19-4.21,1.42-1.16c1.48-1.2,3.03-2.31,4.56-3.44c5.43-4.01,10.99-7.83,16.73-11.37
				c15.68-9.68,32.33-17.77,48.09-27.39c40.79-24.9,80.4-51.73,120.27-78.07c42.62-28.15,85.26-56.41,129.3-82.31
				c16.99-9.99,34.21-19.73,52.11-28.03c1.78-0.82,3.57-1.63,5.36-2.42c0.86-0.38,1.73-0.73,2.59-1.12c0.2-0.09-4.77,1.96-2.4,1.02
				c0.52-0.21,1.03-0.42,1.55-0.63c3.15-1.27,6.33-2.47,9.57-3.52c2.73-0.89,5.5-1.69,8.32-2.29c1.1-0.24,2.25-0.34,3.34-0.61
				c-7,1.75-3.14,0.33-0.78,0.26c0.94-0.03,1.89,0.1,2.82,0.07c2.18-0.08-5.89-1.16-3.15-0.42c1.04,0.28,2.11,0.43,3.15,0.73
				c0.88,0.25,1.81,0.76,2.7,0.91c-4.42-0.74-3.26-1.49-1.07-0.34c0.84,0.44,1.67,0.92,2.47,1.43c0.76,0.48,3.99,2.84,1.12,0.69
				c-2.92-2.19,0.12,0.21,0.69,0.74c0.73,0.68,1.43,1.39,2.11,2.12c0.68,0.73,1.28,1.62,2,2.3c1.48,1.39-2.42-3.58-1.38-1.8
				c0.33,0.56,0.78,1.07,1.15,1.6c1.22,1.78,2.34,3.64,3.37,5.55c0.53,0.98,1.03,1.98,1.51,2.99c0.24,0.51,0.46,1.04,0.71,1.55
				c1.29,2.61-1.34-3.56-0.64-1.52c1.61,4.73,3.24,9.34,4.29,14.24c0.18,0.85,0.79,7.23,1.32,7.45c-0.13-0.05-0.53-4.92-0.28-1.92
				c0.05,0.64,0.14,1.28,0.2,1.92c0.14,1.46,0.25,2.92,0.33,4.38c0.31,5.46,0.23,10.94-0.23,16.38c-0.11,1.34-0.27,2.67-0.41,4
				c-0.34,3.17,0.7-4.24,0.01-0.29c-0.49,2.82-1.01,5.63-1.68,8.41c-0.63,2.61-1.35,5.21-2.18,7.76c-0.41,1.28-0.85,2.54-1.31,3.8
				c-0.27,0.75-2.12,5.53-0.95,2.51c1.21-3.1-0.67,1.35-0.96,1.94c-0.58,1.19-1.19,2.38-1.82,3.54c-1.34,2.47-2.8,4.87-4.39,7.19
				c-0.55,0.8-2.16,2.3-2.31,3.21c0.05-0.27,2.89-3.45,0.97-1.32c-0.44,0.49-0.85,1.01-1.28,1.51c-1.84,2.11-3.8,4.12-5.88,6.01
				c-0.98,0.89-2.05,1.69-3.02,2.58c-1.64,1.52,3.14-2.22,1.27-0.99c-0.56,0.37-1.09,0.79-1.64,1.17c-2.38,1.64-4.86,3.12-7.43,4.44
				c-1.17,0.6-2.7,1.02-3.77,1.78c0.4-0.28,4.41-1.71,1.11-0.51c-0.82,0.3-1.64,0.63-2.46,0.93c-3.13,1.14-6.3,2.16-9.52,3.02
				c-2.97,0.8-5.97,1.46-9,1.97c-4.9,0.83,2.46-0.14-0.58,0.09c-1.73,0.13-3.45,0.3-5.18,0.37c-2.47,0.09-4.94,0.06-7.41-0.1
				c-0.72-0.05-5.42-0.65-1.85-0.09c3.47,0.54-1.32-0.25-2.16-0.42c-2.33-0.47-4.64-1.06-6.9-1.78c-1.11-0.35-2.19-0.76-3.28-1.15
				c-4.17-1.5,3.15,1.58-0.03-0.02c-4.15-2.09-8-4.41-11.8-7.09c-2.32-1.63,3.65,3.06,0.41,0.27c-0.83-0.71-1.66-1.42-2.47-2.15
				c-1.71-1.55-3.36-3.18-4.94-4.87c-1.38-1.48-2.72-3-4.01-4.57c-0.34-0.42-0.67-0.84-1.01-1.25c-1.7-2.05,1.33,1.73,1.34,1.74
				c-0.58-1.13-1.62-2.18-2.35-3.23c-2.4-3.42-4.6-6.98-6.64-10.62c-2.05-3.67-3.92-7.44-5.64-11.27c-0.34-0.75-0.65-1.51-0.99-2.26
				c-0.31-0.67,1.95,4.83,0.49,1.13c-0.68-1.72-1.36-3.44-2-5.17c-1.95-5.29-3.65-10.68-5.06-16.14c-0.53-2.04-1.04-4.1-1.43-6.18
				c-1.75-9.27-13.42-15.39-22.14-12.57c-9.91,3.21-14.44,12.21-12.57,22.14c1.55,8.21,4.19,16.31,7.16,24.1
				c7.09,18.6,16.55,36.4,30.53,50.79c16.6,17.09,39.3,27.23,63.26,26.81c27.75-0.5,57.19-11.88,74.97-33.72
				c16.84-20.68,24.91-46.93,25.33-73.44c0.38-24.09-5.62-49.06-21.03-67.98c-12.45-15.29-31.02-21.4-49.99-17.58
				c-15.69,3.16-30.78,10.78-44.98,17.92c-43.18,21.72-83.94,48.45-124.41,74.76c-44.7,29.06-88.86,58.97-133.71,87.8
				c-17.35,11.15-34.79,22.21-52.71,32.43c-7.98,4.55-16.26,8.55-24.18,13.19c-13.11,7.68-25.34,16.86-37.08,26.49
				c-47.31,38.82-86.26,88-121.92,137.39c-20.38,28.21-42,56.81-53.22,90.13c-18.24,54.14-10.02,113.99,11.41,165.9
				c8.05,19.49,17.5,38.22,28.38,56.29c5.18-9.03,10.36-18.06,15.54-27.08c-4.13-0.18-8.25-0.47-12.36-0.93
				c-1-0.11-1.99-0.23-2.99-0.36c0.18,0.02,3.19,0.5,1.11,0.13c-2.15-0.39-4.31-0.69-6.45-1.11c-7.2-1.39-14.31-3.25-21.26-5.6
				c-3.1-1.05-6.86-1.93-9.66-3.63c2.84,1.73,1.11,0.47-0.85-0.42c-1.66-0.76-3.32-1.54-4.95-2.36c-5.5-2.74-10.85-5.8-16-9.15
				c-2.25-1.47-4.47-2.99-6.64-4.56c-0.51-0.37-4.42-3.41-1.9-1.37c2.43,1.96-1.5-1.2-2.1-1.7c-3.79-3.1-7.45-6.37-10.95-9.79
				c-2.97-2.91-5.84-5.93-8.58-9.05c-1.09-1.25-2.17-2.51-3.22-3.8c-0.45-0.55-0.89-1.1-1.33-1.65c-0.24-0.3-0.47-0.6-0.71-0.9
				c-1.7-2.09,2.98,4.05,1.5,1.94c-1.87-2.67-3.9-5.22-5.55-8.03c-4.77-8.12-16.45-11.73-24.63-6.46
				C486.72,721.17,483.35,731.83,488.45,740.52L488.45,740.52z"/>
		</g>
	</g>
	<g>
		<g>
			<path class="st3" d="M1289.41,388.85c21.37-4.96,42.45-12.85,62.22-22.25c29.93-14.24,63.48-37.91,64.99-74.32
				c0.88-21.08-17.23-31.91-34.12-39.23c-8.58-3.72-17.26-7.25-25.39-11.9c-1.92-1.1-3.8-2.25-5.64-3.48
				c-0.83-0.56-1.64-1.15-2.47-1.72c-3.44-2.34,2.94,2.65-0.16-0.14c-1.79-1.62-3.6-3.18-5.26-4.94c-0.45-0.48-2.32-2.07-2.39-2.73
				c1.55,2.06,1.76,2.3,0.61,0.73c-0.15-0.21-0.29-0.42-0.43-0.64c-1.26-2.17-2.5-6.93-0.5-0.26c-0.62-2.08-1.54-4.1-2.18-6.19
				c-1.43-4.61-2.6-9.31-3.87-13.97c-3.32-12.21-7.31-24.43-13.46-35.54c-8.16-14.74-20.75-27.34-36.2-34.3
				c-23.35-10.52-48.51-10.09-73.39-6.4c-9.35,1.39-15.31,13.67-12.57,22.14c3.3,10.2,12.13,14.06,22.14,12.57
				c5.14-0.76-3.76,0.36,1.28-0.18c1.46-0.16,2.92-0.33,4.38-0.47c2.32-0.22,4.65-0.39,6.98-0.5c5.06-0.25,10.13-0.24,15.19,0.13
				c1.16,0.08,2.31,0.22,3.47,0.31c4.08,0.33-4.3-0.75-0.36-0.07c1.75,0.3,3.5,0.59,5.23,0.97c3.86,0.84,7.5,2.13,11.24,3.36
				c3.33,1.1-4.01-2-0.94-0.39c0.78,0.41,1.61,0.75,2.4,1.16c1.28,0.65,2.54,1.35,3.77,2.09c1.43,0.86,2.77,1.85,4.18,2.76
				c1.29,0.83,1.05,1.79-1.69-1.34c0.67,0.76,1.7,1.38,2.47,2.05c2.15,1.89,4.16,3.94,6.03,6.12c0.48,0.56,0.92,1.28,1.46,1.78
				c-3.22-2.97-2.27-3.06-1.42-1.83c1,1.46,2.04,2.87,2.98,4.37c1.46,2.31,2.79,4.71,4.01,7.16c0.55,1.1,1.06,2.22,1.58,3.34
				c0.62,1.31,1.4,4.06-0.65-1.61c0.33,0.91,0.74,1.8,1.09,2.7c1.95,5.03,3.56,10.19,5.03,15.38c2.74,9.71,4.93,19.5,9.11,28.73
				c7.08,15.65,23.29,26.57,38.23,33.87c7.8,3.81,15.9,6.93,23.77,10.58c3.17,1.47,6.33,3.02,9.28,4.9
				c0.59,0.38,1.17,0.84,1.78,1.19c1.89,1.06-3.52-3.24-1.39-1.09c0.52,0.53,1.13,1.07,1.69,1.56c3.01,2.65-1.54-3.07-0.56-0.85
				c0.14,0.32,0.47,0.89,0.69,1.19c1.69,2.35-1.59-4.57-0.82-1.76c0.79,2.86,0.06-5.03-0.2-2.03c-0.07,0.8,0.01,1.64-0.02,2.44
				c-0.02,0.56-0.11,1.14-0.11,1.69c-0.01,3.34,1.02-4.68,0.2-1.45c-0.45,1.76-0.75,3.52-1.3,5.26c-0.21,0.66-0.47,1.31-0.68,1.97
				c-0.99,3.15,2.1-4.12,0.52-1.21c-0.74,1.37-1.38,2.78-2.17,4.13c-0.8,1.37-1.7,2.67-2.58,3.99c-1.06,1.59-2.68,2.1,0.7-0.83
				c-0.64,0.56-1.15,1.41-1.71,2.06c-2.2,2.55-4.59,4.94-7.09,7.2c-1.41,1.27-2.91,2.45-4.34,3.69c-2.72,2.37,3.56-2.53,0.59-0.45
				c-0.8,0.56-1.57,1.16-2.36,1.73c-6.23,4.45-12.85,8.35-19.64,11.89c-3.84,2-7.73,3.88-11.68,5.65c-1.66,0.75-3.57,1.96-5.37,2.35
				c4.69-1.03,2.32-0.96,0.76-0.34c-1.17,0.47-2.33,0.94-3.5,1.41c-6.6,2.6-13.3,4.98-20.06,7.15c-6.9,2.22-13.88,4.32-20.95,5.97
				c-9.18,2.13-15.48,13.15-12.57,22.14C1270.37,385.87,1279.57,391.13,1289.41,388.85L1289.41,388.85z"/>
		</g>
	</g>
	<g>
		<g>
			<path class="st2" d="M835.94,231.94c-7.17,6.53-13.74,13.82-20.05,21.16c-15.26,17.77-29.15,36.96-40.29,57.59
				c-14.01,25.94-23.68,53.84-26.5,83.26c-3.12,32.57,4.72,65.63,21.16,93.82c10.88,18.65,24.95,35.7,37.33,53.38
				c14.13,20.18,27.78,40.71,40.3,61.93c6.57,11.14,12.83,22.46,18.6,34.04c2.74,5.5,5.37,11.06,7.86,16.68
				c0.65,1.46,1.27,2.94,1.91,4.4c0.93,2.13-1.44-3.52-0.58-1.37c0.26,0.65,0.54,1.3,0.8,1.95c1.25,3.06,2.44,6.13,3.59,9.23
				c3.92,10.62,7.22,21.5,9.39,32.63c0.45,2.29,0.33,5.64,1.3,7.73c-0.04-0.08-0.56-4.94-0.29-2.1c0.06,0.59,0.14,1.19,0.2,1.78
				c0.16,1.47,0.29,2.94,0.39,4.41c0.34,4.83,0.39,9.68,0.06,14.51c-0.09,1.24-0.22,2.47-0.34,3.7c-0.35,3.78,0.88-4.94,0.03-0.35
				c-0.44,2.36-0.9,4.71-1.53,7.04c-0.55,2.03-1.18,4.04-1.91,6.01c-0.18,0.49-0.39,0.97-0.56,1.47c-0.87,2.48,0.9-2.13,0.9-2.13
				c-0.72,0.97-1.13,2.45-1.69,3.53c-1.03,1.98-2.16,3.91-3.4,5.77c-0.6,0.9-1.65,1.95-2.07,2.93c0.02-0.05,3.07-3.72,1.33-1.74
				c-0.45,0.51-0.86,1.04-1.31,1.55c-1.54,1.77-3.18,3.46-4.9,5.05c-0.83,0.77-1.71,1.5-2.56,2.25c-3.37,2.98,3.25-2.18-0.5,0.41
				c-4.56,3.15-9.26,5.97-14.29,8.31c-0.61,0.29-1.24,0.54-1.85,0.84c-2.05,1,3.61-1.38,1.44-0.6c-1.5,0.54-2.98,1.18-4.48,1.73
				c-3.19,1.15-6.42,2.17-9.68,3.08c-6.02,1.67-12.11,2.61-18.2,3.91c6.81-1.45-0.94,0.04-2.98,0.18c-2.37,0.16-4.75,0.23-7.13,0.21
				c-2.18-0.02-4.35-0.12-6.52-0.3c-1-0.08-2-0.22-3-0.3c-2.66-0.23,2.69,0.38,2.57,0.35c-0.7-0.18-1.47-0.22-2.19-0.35
				c-4.16-0.72-8.26-1.77-12.26-3.14c-0.9-0.31-1.78-0.65-2.67-0.97c-4.18-1.51,2.42,1.16,0.7,0.33c-1.9-0.92-3.82-1.78-5.69-2.79
				c-3.52-1.91-6.79-4.14-10.05-6.46c-2.04-1.45,4,3.34,0.59,0.41c-0.72-0.62-1.45-1.22-2.16-1.84c-1.7-1.5-3.34-3.06-4.92-4.68
				c-1.35-1.38-2.65-2.8-3.91-4.26c-0.64-0.74-1.25-1.49-1.87-2.24c-2.67-3.18,2.52,3.51,0.11,0.16
				c-5.27-7.32-9.5-15.01-13.29-23.18c-1.15-2.47,1.78,4.49,0.27,0.63c-0.39-1-0.79-1.99-1.17-3c-0.86-2.29-1.66-4.6-2.41-6.93
				c-1.53-4.79-2.83-9.65-3.91-14.57c-0.49-2.24-0.94-4.49-1.34-6.75c-0.2-1.14-0.4-2.29-0.58-3.43c-0.11-0.72-0.22-1.44-0.33-2.16
				c-0.47-3.05,0.25,0.91,0.22,1.73c0.17-5.08-1.12-10.53-1.36-15.65c-0.52-10.94-0.14-21.92,1.02-32.81
				c0.14-1.28,0.3-2.56,0.44-3.85c0.48-4.16-0.67,4.33,0.08-0.53c0.45-2.92,0.92-5.83,1.46-8.74c1.04-5.58,2.28-11.13,3.72-16.62
				c1.51-5.78,3.24-11.51,5.17-17.16c0.95-2.79,1.96-5.57,3.01-8.32c0.5-1.31,1.01-2.61,1.53-3.91c0.26-0.65,0.53-1.3,0.79-1.95
				c1.44-3.58-1.74,3.95-0.17,0.41c5.11-11.56,10.89-22.77,17.6-33.49c3.36-5.37,6.93-10.6,10.68-15.7c0.4-0.54,3.81-4.95,2.01-2.7
				c-1.86,2.33,1.4-1.75,1.77-2.21c2.29-2.84,4.64-5.63,7.04-8.37c9.04-10.29,18.91-19.84,29.46-28.57c1.42-1.18,2.85-2.34,4.3-3.48
				c0.64-0.5,1.28-1.08,1.95-1.53c-0.38,0.26-3.23,2.44-0.69,0.55c3.03-2.25,6.06-4.48,9.16-6.63c6.01-4.16,12.18-8.07,18.49-11.75
				c13.92-8.1,28.38-15.36,42.68-22.77c24.77-12.85,49.79-25.25,75.4-36.35c1.37-0.59,2.73-1.18,4.1-1.77
				c4.48-1.92-1.97,0.81,0.83-0.36c3.08-1.28,6.17-2.56,9.26-3.82c6.06-2.45,12.14-4.82,18.26-7.12
				c12.75-4.79,25.62-9.24,38.57-13.42c30.72-9.9,61.9-18.32,93.18-26.22c19.38-4.9,38.82-9.58,58.27-14.18
				c-4.62-10.97-9.25-21.93-13.87-32.9c-21,13.86-39.46,30.6-54.18,51.04c-5.85,8.12-11.02,16.94-14.45,26.39
				c-4.58,12.64,9.67,26.42,22.14,22.14c2.9-0.99,5.88-1.81,8.85-2.57c2.83-0.72,5.68-1.37,8.54-1.93c1.94-0.38,3.89-0.69,5.84-1.02
				c2.02-0.34,0.83-0.95-1.08,0.13c0.87-0.49,2.85-0.32,3.81-0.4c3.66-0.32,7.34-0.46,11.01-0.32c1.07,0.04,2.14,0.15,3.21,0.19
				c2.41,0.09,0.25-0.69-1-0.2c1.27-0.49,4.75,0.93,6.04,1.31c-0.17-0.05,2.29,0.66,2.29,0.75c-0.01,0.21-3.84-2.1-0.68-0.25
				c0.57,0.33,1.15,0.71,1.73,1.01c1.86,0.96-1.17,0.8-1.64-1.35c0.15,0.68,2,1.8,2.55,2.36c0.53,0.55,1.01,1.14,1.53,1.69
				c2.59,2.8-1.35-2.19-0.46-0.62c3.37,5.93,6.91,11.52,9.74,17.79c0.66,1.46,1.29,2.93,1.94,4.4c1.27,2.89-0.2-0.54-0.38-0.93
				c0.44,0.92,0.79,1.89,1.18,2.84c1.5,3.61,2.96,7.22,4.47,10.83c5.76,13.8,11.6,29.38,22.85,39.8
				c8.05,7.45,17.82,13.46,26.58,20.06c2.62,1.97,5.23,3.95,7.83,5.94c0.81,0.62,1.61,1.24,2.42,1.86c1.51,1.15-4.49-3.48-2.6-2.01
				c0-8.49,0-16.97,0-25.46c-9.03,7.09-17.66,14.76-25.83,22.81c-12.62,12.43-28.26,28.39-28.77,47.25
				c9.03-5.18,18.06-10.36,27.08-15.54c-18.27-14.11-41.44-23.34-64.16-26.96c-25.17-4-52.23-2.69-74.5,11.02
				c-19.02,11.71-34.5,31.4-47.12,49.41c-16.26,23.2-28.49,49.79-34.94,77.4c-8.65,37.03-7.16,75.72,2.99,112.3
				c14.29,51.51,44.04,97.38,78.45,137.69c5.24,6.14,10.64,12.15,16.13,18.07c6.42,6.92,19.05,6.98,25.46,0
				c6.8-7.41,6.85-18.08,0-25.46c-20.73-22.33-35.94-41.08-51.86-66.45c-6.39-10.19-12.29-20.68-17.56-31.49
				c-2.24-4.59-4.36-9.24-6.37-13.94c1.84,4.31,0.05,0.07-0.25-0.69c-0.5-1.24-0.99-2.47-1.47-3.72c-1.1-2.84-2.14-5.7-3.14-8.58
				c-3.22-9.3-5.92-18.8-7.99-28.42c-0.89-4.14-1.67-8.31-2.32-12.5c-0.17-1.1-0.23-2.27-0.5-3.35c1.24,5.11,0.23,1.71,0.07,0.36
				c-0.3-2.54-0.56-5.09-0.76-7.64c-0.68-8.35-0.86-16.75-0.5-25.12c0.17-3.98,0.46-7.96,0.87-11.93c0.06-0.6,0.24-4.75,0.56-4.84
				c-0.26,0.07-0.76,5.01-0.11,0.97c0.2-1.26,0.39-2.52,0.6-3.77c2.4-14.16,6.36-28.03,11.72-41.35c0.31-0.77,0.71-1.55,0.96-2.34
				c-1.7,5.34-1.11,2.58-0.5,1.23c0.67-1.51,1.34-3.02,2.03-4.51c1.36-2.92,2.78-5.81,4.26-8.67c2.82-5.42,5.86-10.71,9.12-15.88
				c2.99-4.74,6.16-9.38,9.49-13.89c0.78-1.06,1.59-2.1,2.37-3.15c1.73-2.32-3.05,3.85-1.24,1.61c0.4-0.49,0.78-0.99,1.17-1.49
				c1.57-1.97,3.18-3.92,4.81-5.84c5.13-6.02,10.57-11.78,16.35-17.17c0.54-0.5,1.08-1.01,1.63-1.5c0.5-0.45,1.01-0.89,1.51-1.34
				c1.53-1.25,1.33-1.14-0.59,0.36c0.69-0.52,1.39-1.03,2.1-1.52c2.48-1.71,5.08-3.23,7.78-4.57c0.97-0.48,4.32-2.75,0.41-0.3
				c1.36-0.85,3.35-1.27,4.87-1.77c2.49-0.8,5.02-1.47,7.57-2.02c1.29-0.28,2.59-0.48,3.89-0.74c2.02-0.31,1.74-0.28-0.84,0.08
				c0.88-0.11,1.77-0.2,2.66-0.28c6.32-0.58,12.69-0.54,19.01,0.01c0.92,0.08,1.83,0.19,2.74,0.27c2.05,0.25,1.83,0.2-0.67-0.13
				c0.91,0.13,1.83,0.27,2.74,0.42c3.2,0.53,6.37,1.17,9.52,1.92c6.25,1.5,12.4,3.42,18.39,5.75c0.84,0.33,1.68,0.68,2.52,1.01
				c-4.55-1.79,0.99,0.48,1.84,0.88c2.77,1.3,5.5,2.68,8.17,4.17c5.04,2.8,9.87,5.96,14.43,9.49c4.91,3.79,13.16,2.93,18.17,0
				c5.59-3.27,8.74-9.15,8.92-15.54c0.07-2.58,0.89-0.03-0.39,2.33c0.23-0.42,0.4-1.5,0.51-1.97c0.92-3.82-2.15,4.13,0.13-0.27
				c1.37-2.64,3.35-7,5.74-8.82c-3.01,2.29-1.6,2.05-0.28,0.45c0.67-0.81,1.35-1.62,2.04-2.41c1.29-1.5,2.62-2.97,3.97-4.42
				c2.86-3.07,5.82-6.04,8.84-8.95c7.49-7.2,15.32-14.12,23.5-20.54c7.02-5.51,7.04-19.98,0-25.46
				c-11.48-8.92-23.02-17.81-34.86-26.24c-2.94-2.09,3.06,3.19,0.94,0.67c-0.35-0.42-0.86-0.8-1.24-1.19
				c-0.6-0.61-3.57-4.24-1.56-1.62c2.04,2.67-0.94-1.46-1.4-2.18c-1.04-1.62-2.01-3.29-2.93-4.98c-1.63-2.99-3.11-6.06-4.52-9.15
				c-0.74-1.63-1.45-3.27-2.17-4.91c-1.65-3.74,1.16,2.86,0.15,0.38c-0.46-1.14-0.94-2.27-1.41-3.4
				c-6.51-15.74-12.33-32.07-23.08-45.5c-11.34-14.18-29.28-18.51-46.81-17.91c-13.6,0.47-27.78,2.97-40.7,7.39
				c7.38,7.38,14.76,14.76,22.14,22.14c1.07-2.94-1.44,3.19-1.08,2.5c0.77-1.46,1.38-3.02,2.13-4.5c2.66-5.2,5.78-10.18,9.16-14.94
				c0.51-0.72,1.03-1.44,1.55-2.15c0.33-0.44,0.66-0.89,0.99-1.32c0.8-1.06,0.44-0.6-1.08,1.39c-0.12-0.81,3.26-4.02,3.83-4.69
				c3.23-3.8,6.63-7.45,10.18-10.95c4.08-4.02,8.36-7.84,12.8-11.47c0.3-0.24,3.69-2.93,2.17-1.75c-1.52,1.18,2.05-1.52,2.36-1.75
				c2.97-2.17,6-4.25,9.06-6.27c7.53-4.97,10.96-13.96,7.36-22.48c-3.54-8.38-12.4-12.51-21.23-10.42
				c-65.29,15.41-130.93,31.27-193.71,55.22c-26.16,9.98-51.8,21.32-76.96,33.59c-27.94,13.62-56.39,27.37-82.97,43.5
				c-50.49,30.63-90.02,75.93-112.85,130.37C705.17,619.4,698.7,669.63,709,716.56c8.82,40.21,32.49,77.58,71.83,93.18
				c20.08,7.96,42.25,7.56,63.08,3.11c26.36-5.63,51.47-17.67,67.75-39.74c29.58-40.1,12.19-95.55-5.79-136.5
				c-20.23-46.07-48.86-88.16-78.03-128.94c-5.54-7.74-11.13-15.44-16.68-23.18c-4.46-6.21-8.65-12.58-12.29-19.32
				c-1.9-3.52-3.63-7.12-5.27-10.76c-1.36-3.03,0-0.04,0.21,0.5c-0.41-1.06-0.84-2.1-1.23-3.16c-0.79-2.09-1.52-4.19-2.21-6.32
				c-1.14-3.53-2.13-7.1-2.98-10.7c-0.64-2.73-2.85-8.52-2.14-11.26c-0.54,2.11,0.36,3.1,0.15,1.05c-0.11-1.03-0.23-2.07-0.33-3.1
				c-0.18-1.85-0.32-3.71-0.42-5.56c-0.2-3.67-0.26-7.35-0.18-11.03c0.08-3.43,0.28-6.86,0.59-10.28c0.05-0.54,0.84-5.2,0.59-5.38
				c0.12,0.08-0.71,4.65-0.15,1.22c0.16-0.98,0.31-1.97,0.47-2.95c1.18-7.01,2.82-13.93,4.85-20.74c1.94-6.52,4.27-12.88,6.79-19.19
				c1.18-2.95-0.27,0.92-0.48,1.12c0.52-0.48,0.84-1.95,1.14-2.62c0.69-1.56,1.4-3.11,2.12-4.66c1.43-3.05,2.93-6.07,4.49-9.06
				c5.78-11.09,12.36-21.75,19.54-31.99c1.57-2.24,3.17-4.46,4.8-6.65c0.74-1,1.49-1.99,2.24-2.98c2.75-3.68-2.28,2.84,0.49-0.65
				c3.07-3.87,6.19-7.71,9.41-11.46c4.65-5.42,9.48-10.7,14.5-15.77c1.81-1.83,3.64-3.66,5.55-5.39c6.98-6.36,6.93-19.09,0-25.46
				C853.93,225.09,843.39,225.16,835.94,231.94L835.94,231.94z"/>
		</g>
	</g>
</g>
</svg>
